<svg id="SvgjsSvg1160" width="288" height="288" xmlns="http://www.w3.org/2000/svg" version="1.1" xmlns:xlink="http://www.w3.org/1999/xlink" xmlns:svgjs="http://svgjs.com/svgjs"><defs id="SvgjsDefs1161"></defs><g id="SvgjsG1162"><svg xmlns="http://www.w3.org/2000/svg" enable-background="new 0 0 128 128" viewBox="0 0 128 128" width="288" height="288"><path fill="#242222" d="M32.528,41.64h65.513v54.001c0,5.502-3.471,5.502-4.694,5.502H85.15		c0.015,0.215,0.026,0.43,0.026,0.645v16.936c0,4.229-3.148,7.657-7.026,7.657c-3.877,0-7.023-3.428-7.023-7.657v-16.936
		c0-0.215,0.009-0.43,0.025-0.645H59.416c0.018,0.215,0.026,0.43,0.026,0.645v16.936c0,4.229-3.145,7.657-7.024,7.657
		c-3.878,0-7.023-3.428-7.023-7.657v-16.936c0-0.215,0.01-0.43,0.026-0.645h-8.31c-1.223,0-4.584,0-4.584-5.403V41.64z
		 M17.845,40.427c-4.176,0-4.322,3.386-4.322,7.561v34.465c0,4.178,0.146,7.564,4.322,7.564c4.176,0,5.941-3.386,5.941-7.564V47.988
		C23.786,43.814,22.021,40.427,17.845,40.427z M120.954,47.988v34.465c0,4.178-3.384,7.564-7.561,7.564s-4.322-3.386-4.322-7.564
		V47.988c0-4.175,0.145-7.561,4.322-7.561S120.954,43.814,120.954,47.988z M50.654,12.36C40.3,17.643,32.911,28.083,32.911,41.089
		l66.749-0.161c0-12.87-7.169-23.156-17.31-28.443l-1.554-0.76 M80.796,11.725c-4.422-2.023-9.338-3.133-14.435-3.133
		c-4.976,0-9.795,1.064-14.151,3.02l-1.556,0.747 M51.069,30.927c-2.496,0-4.519-2.164-4.519-4.838c0-2.671,2.024-4.838,4.519-4.838
		c2.495,0,4.519,2.167,4.519,4.838C55.588,28.763,53.564,30.927,51.069,30.927z M81.655,30.927c-2.497,0-4.518-2.164-4.518-4.838
		c0-2.671,2.021-4.838,4.518-4.838c2.497,0,4.521,2.167,4.521,4.838C86.176,28.763,84.152,30.927,81.655,30.927z" class="colorbcd600 svgShape"></path><path fill="#ffffff" d="M77.97,128c-5.116,0-9.278-4.162-9.278-9.277v-15.961h-9.503v15.961
		c0,5.115-4.162,9.277-9.28,9.277c-5.116,0-9.277-4.162-9.277-9.277v-15.961h-7.414c-5.47,0-6.618-3.819-6.618-7.022l0.017-55.72
		c0.38-11.952,7.127-22.374,18.305-28.321L39.254,2.28l2.774-1.67l5.829,9.685l0.357-0.161c5.012-2.103,10.319-3.162,15.808-3.162
		c5.053,0,10.131,0.942,14.778,2.733L84.679,0l2.771,1.678l-5.65,9.33l0.008,0.003c11.916,5.805,19.124,16.597,19.459,29.009h0.013
		v55.62c0,2.66-0.876,7.122-6.738,7.122h-7.289v15.961C87.252,123.838,83.088,128,77.97,128z M55.772,99.524h16.338l-0.157,1.762
		c-0.014,0.167-0.022,0.334-0.022,0.501v16.936c0,3.33,2.709,6.038,6.039,6.038c3.332,0,6.043-2.708,6.043-6.038v-16.936
		c0-0.176-0.011-0.35-0.024-0.525l-0.128-1.739H94.54c1.393,0,3.5,0,3.5-3.883V43.259H29.839V95.74c0,3.784,1.953,3.784,3.38,3.784
		h10.817l-0.141,1.751c-0.014,0.171-0.024,0.342-0.024,0.513v16.936c0,3.33,2.709,6.038,6.038,6.038c3.33,0,6.041-2.708,6.041-6.038
		v-16.936c0-0.168-0.008-0.334-0.022-0.501L55.772,99.524z M29.858,40.02h68.167c-0.337-11.145-6.862-20.848-17.601-26.08
		l-1.608-0.735c-4.589-1.959-9.705-2.994-14.794-2.994c-5.057,0-9.942,0.974-14.519,2.894l-1.611,0.724
		C36.934,19.06,30.257,28.795,29.858,40.02z M111.773,91.637c-5.062,0-9.18-4.12-9.18-9.183V47.988c0-5.062,4.118-9.18,9.18-9.18
		s9.18,4.118,9.18,9.18v34.465C120.953,87.517,116.835,91.637,111.773,91.637z M111.773,42.047c-3.277,0-5.941,2.666-5.941,5.941
		v34.465c0,3.278,2.665,5.945,5.941,5.945s5.941-2.667,5.941-5.945V47.988C117.715,44.713,115.05,42.047,111.773,42.047z
		 M16.225,91.637c-5.061,0-9.179-4.12-9.179-9.183V47.988c0-5.062,4.118-9.18,9.179-9.18c5.062,0,9.18,4.118,9.18,9.18v34.465
		C25.405,87.517,21.287,91.637,16.225,91.637z M16.225,42.047c-3.275,0-5.94,2.666-5.94,5.941v34.465
		c0,3.278,2.665,5.945,5.94,5.945c3.277,0,5.941-2.667,5.941-5.945V47.988C22.166,44.713,19.502,42.047,16.225,42.047z
		 M80.39,32.547c-3.56,0-6.455-2.897-6.455-6.458s2.896-6.458,6.455-6.458c3.56,0,6.457,2.897,6.457,6.458
		S83.95,32.547,80.39,32.547z M80.39,22.87c-1.774,0-3.217,1.444-3.217,3.219s1.442,3.219,3.217,3.219s3.218-1.444,3.218-3.219
		S82.164,22.87,80.39,22.87z M51.121,32.547c-3.56,0-6.457-2.897-6.457-6.458s2.897-6.458,6.457-6.458s6.455,2.897,6.455,6.458
		S54.681,32.547,51.121,32.547z M51.121,22.87c-1.774,0-3.218,1.444-3.218,3.219s1.444,3.219,3.218,3.219
		c1.774,0,3.217-1.444,3.217-3.219S52.895,22.87,51.121,22.87z" class="color242529 svgShape"></path></svg></g></svg>