<svg width="61" height="61" viewBox="0 0 61 61" fill="none" xmlns="http://www.w3.org/2000/svg">
<g clip-path="url(#clip0_193_19)">
<path d="M46.5364 0H14.4636C6.47557 0 0 6.56279 0 14.6584V46.3416C0 54.4372 6.47557 61 14.4636 61H46.5364C54.5244 61 61 54.4372 61 46.3416V14.6584C61 6.56279 54.5244 0 46.5364 0Z" fill="#242222"/>
<path d="M23.683 29.6091C22.5804 33.9475 21.4616 38.3023 20.359 42.6406C20.0509 43.6595 19.7915 44.8262 19.6617 46.1245C19.6131 46.5353 19.5807 46.9297 19.5644 47.3241C19.532 47.8664 19.678 49.559 20.8941 50.2492C22.0129 50.8901 23.3263 50.2492 23.4884 50.167L24.6883 49.4275L26.099 48.2608C26.6827 47.6199 27.0232 47.1433 27.234 46.8147C27.2827 46.7325 27.4448 46.4696 27.6881 46.108C27.9313 45.7301 28.0772 45.5493 28.288 45.2371C28.4664 44.9577 28.8555 44.3661 29.0177 44.1196C29.6014 43.1994 30.0878 42.1641 30.5905 41.1616C31.6931 39.0089 31.7255 39.2718 32.6173 37.497C33.3146 36.1002 33.4605 35.6565 34.4334 33.6845C35.1469 32.2384 35.2766 32.0412 35.4225 31.6797C36.2008 29.7899 38.0331 28.5574 40.0437 28.5738H40.1734H42.6867H51.767C52.4318 28.5738 53.0966 28.5902 53.7614 28.6067C53.275 27.177 52.7885 25.7309 52.3183 24.3012L51.6697 22.5593C51.6697 22.5593 51.6535 22.51 51.6373 22.4935L50.5833 20.2093C50.405 19.7163 50.2266 19.3055 50.0807 19.0261C49.9023 18.6646 49.7239 18.4017 49.578 18.1387C49.4483 17.9251 49.2699 17.6293 49.0267 17.3006C48.6213 16.7748 48.1997 16.3968 47.9727 16.2161C46.8377 15.3287 45.2162 15.2465 44.8595 15.2301C43.692 15.2301 42.5246 15.2136 41.3571 15.1972C39.8167 15.1972 38.2763 15.1972 36.7521 15.1972H15.6891L8.03574 15C8.03574 15 7.98709 15.0164 8.00331 15.0493L9.10591 20.9488L9.38157 22.0663L9.68965 23.0851L10.3707 24.4162L10.8409 25.0407L11.6192 25.7802C12.6083 26.7169 13.7758 27.4235 15.0567 27.8672L16.7269 28.4423C17.1971 28.5902 17.6997 28.7381 18.2673 28.8696C18.9159 29.0175 19.5158 29.1161 20.0671 29.1818C20.3103 29.1983 20.7157 29.2311 21.2021 29.2969C21.5913 29.3462 21.7372 29.3626 22.0129 29.3955C22.175 29.4119 22.2561 29.4283 22.321 29.4283C22.402 29.4283 22.6453 29.4612 23.2938 29.5269C23.3749 29.5269 23.5046 29.5434 23.6506 29.5598L23.683 29.6091Z" fill="#FC1D63"/>
</g>
<defs>
<clipPath id="clip0_193_19">
<rect width="61" height="61" fill="white"/>
</clipPath>
</defs>
</svg>
